TITLE ""
FILE "Disc3Track34.mp3" MP3
  TRACK 01 AUDIO
    TITLE "Disc3Track34_01"
    INDEX 01 00:00:00
  TRACK 02 AUDIO
    TITLE "Disc3Track34_02"
    INDEX 01 00:00:69
  TRACK 03 AUDIO
    TITLE "Disc3Track34_03"
    INDEX 01 00:01:63
  TRACK 04 AUDIO
    TITLE "Disc3Track34_04"
    INDEX 01 00:02:68
  TRACK 05 AUDIO
    TITLE "Disc3Track34_05"
    INDEX 01 00:04:61
  TRACK 06 AUDIO
    TITLE "Disc3Track34_06"
    INDEX 01 00:05:19
  TRACK 07 AUDIO
    TITLE "Disc3Track34_07"
    INDEX 01 00:06:38
  TRACK 08 AUDIO
    TITLE "Disc3Track34_08"
    INDEX 01 00:08:24
  TRACK 09 AUDIO
    TITLE "Disc3Track34_09"
    INDEX 01 00:09:43
  TRACK 10 AUDIO
    TITLE "Disc3Track34_10"
    INDEX 01 00:09:72
  TRACK 11 AUDIO
    TITLE "Disc3Track34_11"
    INDEX 01 00:11:30
  TRACK 12 AUDIO
    TITLE "Disc3Track34_12"
    INDEX 01 00:13:60
  TRACK 13 AUDIO
    TITLE "Disc3Track34_13"
    INDEX 01 00:15:10
  TRACK 14 AUDIO
    TITLE "Disc3Track34_14"
    INDEX 01 00:17:19
  TRACK 15 AUDIO
    TITLE "Disc3Track34_15"
    INDEX 01 00:17:46
  TRACK 16 AUDIO
    TITLE "Disc3Track34_16"
    INDEX 01 00:19:08
  TRACK 17 AUDIO
    TITLE "Disc3Track34_17"
    INDEX 01 00:20:52
  TRACK 18 AUDIO
    TITLE "Disc3Track34_18"
    INDEX 01 00:22:10
  TRACK 19 AUDIO
    TITLE "Disc3Track34_19"
    INDEX 01 00:25:46
  TRACK 20 AUDIO
    TITLE "Disc3Track34_20"
    INDEX 01 00:25:75
  TRACK 21 AUDIO
    TITLE "Disc3Track34_21"
    INDEX 01 00:27:09
  TRACK 22 AUDIO
    TITLE "Disc3Track34_22"
    INDEX 01 00:28:07
  TRACK 23 AUDIO
    TITLE "Disc3Track34_23"
    INDEX 01 00:29:16
  TRACK 24 AUDIO
    TITLE "Disc3Track34_24"
    INDEX 01 00:29:57
  TRACK 25 AUDIO
    TITLE "Disc3Track34_25"
    INDEX 01 00:31:07
  TRACK 26 AUDIO
    TITLE "Disc3Track34_26"
    INDEX 01 00:32:14
  TRACK 27 AUDIO
    TITLE "Disc3Track34_27"
    INDEX 01 00:33:37
  TRACK 28 AUDIO
    TITLE "Disc3Track34_28"
    INDEX 01 00:37:33
  TRACK 29 AUDIO
    TITLE "Disc3Track34_29"
    INDEX 01 00:37:64
  TRACK 30 AUDIO
    TITLE "Disc3Track34_30"
    INDEX 01 00:39:03
  TRACK 31 AUDIO
    TITLE "Disc3Track34_31"
    INDEX 01 00:41:35
  TRACK 32 AUDIO
    TITLE "Disc3Track34_32"
    INDEX 01 00:42:48
  TRACK 33 AUDIO
    TITLE "Disc3Track34_33"
    INDEX 01 00:46:50
  TRACK 34 AUDIO
    TITLE "Disc3Track34_34"
    INDEX 01 00:47:06
  TRACK 35 AUDIO
    TITLE "Disc3Track34_35"
    INDEX 01 00:48:29
  TRACK 36 AUDIO
    TITLE "Disc3Track34_36"
    INDEX 01 00:49:21
  TRACK 37 AUDIO
    TITLE "Disc3Track34_37"
    INDEX 01 00:50:45
  TRACK 38 AUDIO
    TITLE "Disc3Track34_38"
    INDEX 01 00:51:12
  TRACK 39 AUDIO
    TITLE "Disc3Track34_39"
    INDEX 01 00:52:21
  TRACK 40 AUDIO
    TITLE "Disc3Track34_40"
    INDEX 01 00:54:65
  TRACK 41 AUDIO
    TITLE "Disc3Track34_41"
    INDEX 01 00:55:74
  TRACK 42 AUDIO
    TITLE "Disc3Track34_42"
    INDEX 01 00:59:52
  TRACK 43 AUDIO
    TITLE "Disc3Track34_43"
    INDEX 01 01:00:12
  TRACK 44 AUDIO
    TITLE "Disc3Track34_44"
    INDEX 01 01:01:35
  TRACK 45 AUDIO
    TITLE "Disc3Track34_45"
    INDEX 01 01:02:27
  TRACK 46 AUDIO
    TITLE "Disc3Track34_46"
    INDEX 01 01:03:54
  TRACK 47 AUDIO
    TITLE "Disc3Track34_47"
    INDEX 01 01:04:14
  TRACK 48 AUDIO
    TITLE "Disc3Track34_48"
    INDEX 01 01:05:27
  TRACK 49 AUDIO
    TITLE "Disc3Track34_49"
    INDEX 01 01:06:58
  TRACK 50 AUDIO
    TITLE "Disc3Track34_50"
    INDEX 01 01:07:71
  TRACK 51 AUDIO
    TITLE "Disc3Track34_51"
    INDEX 01 01:11:73
  TRACK 52 AUDIO
    TITLE "Disc3Track34_52"
    INDEX 01 01:12:29
  TRACK 53 AUDIO
    TITLE "Disc3Track34_53"
    INDEX 01 01:13:56
  TRACK 54 AUDIO
    TITLE "Disc3Track34_54"
    INDEX 01 01:16:33
  TRACK 55 AUDIO
    TITLE "Disc3Track34_55"
    INDEX 01 01:17:58
  TRACK 56 AUDIO
    TITLE "Disc3Track34_56"
    INDEX 01 01:22:61
  TRACK 57 AUDIO
    TITLE "Disc3Track34_57"
    INDEX 01 01:23:17
  TRACK 58 AUDIO
    TITLE "Disc3Track34_58"
    INDEX 01 01:24:44
  TRACK 59 AUDIO
    TITLE "Disc3Track34_59"
    INDEX 01 01:26:63
  TRACK 60 AUDIO
    TITLE "Disc3Track34_60"
    INDEX 01 01:28:15
